<svg xmlns="http://www.w3.org/2000/svg" viewBox="0 0 300 100" fill="none" stroke="#ffffff" stroke-width="4" stroke-linecap="round" stroke-linejoin="round">
  <!-- Central circuit paths -->
  <path d="M50 50 L100 50 L120 30 L180 30 L200 50 L250 50" />
  <path d="M60 35 L90 35 L110 55 L190 55 L210 35 L240 35" />
  <path d="M60 65 L90 65 L110 45 L190 45 L210 65 L240 65" />
  
  <!-- Nodes/Dots -->
  <circle cx="50" cy="50" r="5" fill="#ffffff" stroke="none" />
  <circle cx="250" cy="50" r="5" fill="#ffffff" stroke="none" />
  <circle cx="60" cy="35" r="3" fill="#ffffff" stroke="none" />
  <circle cx="240" cy="35" r="3" fill="#ffffff" stroke="none" />
  <circle cx="60" cy="65" r="3" fill="#ffffff" stroke="none" />
  <circle cx="240" cy="65" r="3" fill="#ffffff" stroke="none" />
  
  <!-- Additional tech lines -->
  <path d="M80 20 L130 20 L140 30" />
  <path d="M220 20 L170 20 L160 30" />
  <path d="M80 80 L130 80 L140 70" />
  <path d="M220 80 L170 80 L160 70" />
  
  <circle cx="80" cy="20" r="2.5" fill="#ffffff" stroke="none" />
  <circle cx="220" cy="20" r="2.5" fill="#ffffff" stroke="none" />
  <circle cx="80" cy="80" r="2.5" fill="#ffffff" stroke="none" />
  <circle cx="220" cy="80" r="2.5" fill="#ffffff" stroke="none" />
</svg>
